<?xml version="1.0" encoding="utf-8"?>
<!-- Generator: Adobe Illustrator 19.1.0, SVG Export Plug-In . SVG Version: 6.00 Build 0)  -->
<!DOCTYPE svg PUBLIC "-//W3C//DTD SVG 1.1//EN" "http://www.w3.org/Graphics/SVG/1.1/DTD/svg11.dtd">
<svg version="1.1" id="Layer_1" xmlns="http://www.w3.org/2000/svg" xmlns:xlink="http://www.w3.org/1999/xlink" x="0px" y="0px"
	 viewBox="-1652 1133 150 40" style="enable-background:new -1652 1133 150 40;" xml:space="preserve">
<style type="text/css">
	.st0{fill:#FFFFFF;}
	.st1{fill:none;stroke:#83C0FF;stroke-width:1.467;stroke-miterlimit:10;}
</style>
<g>
	<g>
		<path class="st0" d="M-1597.5,1150.2c0,1.3-0.3,2.4-1,3.1c-0.7,0.8-1.6,1.3-2.8,1.7c0.3,0.3,0.6,0.8,1.1,1.4s0.9,1.2,1.3,1.9
			c0.5,0.7,0.9,1.4,1.4,2.2c0.4,0.7,0.8,1.5,1.1,2.1h-1.9c-0.4-0.7-0.7-1.4-1.2-2c-0.4-0.7-0.8-1.3-1.3-2s-0.9-1.2-1.3-1.8
			c-0.4-0.5-0.8-1-1.1-1.4c-0.5,0.1-1.1,0.1-1.6,0.1h-2.9v7.1h-1.7v-17.3c0.6-0.2,1.3-0.3,2.2-0.4c0.8-0.1,1.6-0.1,2.3-0.1
			c2.4,0,4.3,0.5,5.5,1.4C-1598.1,1147-1597.5,1148.4-1597.5,1150.2z M-1604.6,1146.2c-0.6,0-1.2,0-1.7,0.1c-0.5,0-0.9,0.1-1.2,0.1
			v7.5h2.4c0.8,0,1.6,0,2.3-0.1c0.7-0.1,1.3-0.2,1.9-0.5c0.5-0.3,0.9-0.6,1.2-1.1c0.3-0.5,0.5-1.2,0.5-2c0-0.8-0.2-1.4-0.5-1.9
			s-0.7-0.9-1.2-1.2c-0.5-0.3-1.1-0.5-1.7-0.6C-1603.3,1146.3-1603.9,1146.2-1604.6,1146.2z"/>
		<path class="st0" d="M-1581.9,1156c0,1-0.1,2-0.4,2.8c-0.3,0.8-0.7,1.6-1.2,2.2c-0.5,0.6-1.2,1.1-1.9,1.4s-1.5,0.5-2.4,0.5
			c-0.9,0-1.7-0.2-2.4-0.5c-0.7-0.3-1.4-0.8-1.9-1.4c-0.5-0.6-1-1.3-1.2-2.2c-0.3-0.8-0.4-1.8-0.4-2.8c0-1,0.1-2,0.4-2.8
			c0.3-0.8,0.7-1.6,1.2-2.2c0.5-0.6,1.2-1.1,1.9-1.4c0.7-0.3,1.5-0.5,2.4-0.5c0.9,0,1.7,0.2,2.4,0.5c0.7,0.3,1.4,0.8,1.9,1.4
			c0.5,0.6,1,1.3,1.2,2.2C-1582,1154-1581.9,1154.9-1581.9,1156z M-1583.6,1156c0-1.6-0.4-3-1.1-3.9c-0.8-1-1.8-1.5-3.1-1.5
			c-1.3,0-2.3,0.5-3.1,1.5c-0.8,1-1.1,2.3-1.1,3.9c0,1.6,0.4,3,1.1,3.9c0.8,1,1.8,1.5,3.1,1.5c1.3,0,2.3-0.5,3.1-1.5
			C-1584,1158.9-1583.6,1157.6-1583.6,1156z"/>
		<path class="st0" d="M-1566.8,1156c0,1-0.1,2-0.4,2.8c-0.3,0.8-0.7,1.6-1.2,2.2c-0.5,0.6-1.2,1.1-1.9,1.4
			c-0.7,0.3-1.5,0.5-2.4,0.5s-1.7-0.2-2.4-0.5c-0.7-0.3-1.4-0.8-1.9-1.4s-1-1.3-1.2-2.2c-0.3-0.8-0.4-1.8-0.4-2.8c0-1,0.1-2,0.4-2.8
			s0.7-1.6,1.2-2.2c0.5-0.6,1.2-1.1,1.9-1.4c0.7-0.3,1.5-0.5,2.4-0.5s1.7,0.2,2.4,0.5c0.7,0.3,1.4,0.8,1.9,1.4
			c0.5,0.6,1,1.3,1.2,2.2C-1566.9,1154-1566.8,1154.9-1566.8,1156z M-1568.5,1156c0-1.6-0.4-3-1.1-3.9c-0.8-1-1.8-1.5-3.1-1.5
			s-2.3,0.5-3.1,1.5c-0.8,1-1.1,2.3-1.1,3.9c0,1.6,0.4,3,1.1,3.9c0.8,1,1.8,1.5,3.1,1.5s2.3-0.5,3.1-1.5
			C-1568.9,1158.9-1568.5,1157.6-1568.5,1156z"/>
		<path class="st0" d="M-1562.9,1149.8c0.5-0.1,1.1-0.3,1.9-0.5c0.8-0.2,1.8-0.3,3.1-0.3c1.7,0,2.9,0.5,3.6,1.5
			c0.1-0.1,0.2-0.2,0.5-0.3c0.2-0.2,0.6-0.3,0.9-0.5c0.4-0.2,0.8-0.3,1.3-0.4c0.5-0.1,1.1-0.2,1.7-0.2c1,0,1.8,0.1,2.4,0.4
			c0.6,0.3,1.1,0.7,1.4,1.2c0.3,0.5,0.6,1.2,0.7,1.9c0.1,0.7,0.2,1.6,0.2,2.4v7.4h-1.7v-6.8c0-0.9,0-1.6-0.1-2.3
			c-0.1-0.6-0.2-1.2-0.5-1.6c-0.2-0.4-0.6-0.7-1-0.9c-0.4-0.2-1-0.3-1.7-0.3c-0.5,0-1,0-1.4,0.1c-0.4,0.1-0.8,0.2-1.1,0.3
			c-0.3,0.1-0.6,0.3-0.8,0.4c-0.2,0.1-0.3,0.2-0.4,0.3c0.2,0.4,0.3,0.9,0.3,1.5s0.1,1.1,0.1,1.7v7.5h-1.7v-6.8c0-0.9,0-1.6-0.1-2.3
			c-0.1-0.6-0.2-1.2-0.5-1.6c-0.2-0.4-0.6-0.7-1-0.9c-0.4-0.2-1-0.3-1.7-0.3c-0.8,0-1.5,0-2,0.1c-0.6,0.1-0.9,0.2-1.1,0.2v11.6h-1.7
			V1149.8z"/>
		<path class="st0" d="M-1538.7,1145.4c0,0.4-0.1,0.7-0.4,0.9c-0.2,0.2-0.5,0.3-0.9,0.3c-0.3,0-0.6-0.1-0.9-0.3
			c-0.2-0.2-0.4-0.5-0.4-0.9s0.1-0.7,0.4-0.9c0.2-0.2,0.5-0.3,0.9-0.3c0.3,0,0.6,0.1,0.9,0.3
			C-1538.8,1144.7-1538.7,1145-1538.7,1145.4z M-1539.1,1162.5h-1.7v-13.2h1.7V1162.5z"/>
		<path class="st0" d="M-1529.3,1142.8c0.7,0,1.3,0.1,1.7,0.2s0.7,0.2,0.9,0.3l-0.3,1.4c-0.2-0.1-0.5-0.2-0.8-0.3
			c-0.4-0.1-0.8-0.1-1.4-0.1c-1.2,0-2,0.3-2.5,0.9c-0.5,0.6-0.8,1.5-0.8,2.9v1.4h5.3v1.4h-5.3v11.8h-1.7V1148c0-1.7,0.4-3,1.2-3.9
			C-1532.2,1143.2-1531,1142.8-1529.3,1142.8z"/>
		<path class="st0" d="M-1520,1162.8c-0.6-1-1.1-2.1-1.6-3.2c-0.5-1.1-1-2.3-1.5-3.4c-0.5-1.1-0.9-2.3-1.2-3.4
			c-0.4-1.1-0.7-2.3-1-3.4h1.8c0.2,0.8,0.4,1.7,0.7,2.6c0.3,0.9,0.6,1.9,1,2.9c0.4,1,0.8,2,1.2,3.1c0.4,1.1,0.9,2.1,1.4,3.1
			c0.4-1,0.7-2,1-3c0.3-0.9,0.6-1.9,0.8-2.8c0.2-0.9,0.5-1.9,0.7-2.8c0.2-1,0.5-2,0.7-3.1h1.7c-0.6,2.5-1.2,4.9-1.9,7.2
			c-0.7,2.3-1.4,4.5-2.3,6.4c-0.3,0.8-0.7,1.4-1,2c-0.3,0.6-0.7,1-1.1,1.4c-0.4,0.4-0.9,0.6-1.5,0.8c-0.6,0.2-1.2,0.3-2,0.3
			c-0.4,0-0.8-0.1-1.2-0.2c-0.3-0.1-0.6-0.2-0.7-0.2l0.3-1.4c0.1,0.1,0.3,0.1,0.6,0.2c0.3,0.1,0.6,0.1,1,0.1c0.5,0,0.9-0.1,1.3-0.2
			c0.4-0.1,0.7-0.3,1-0.5c0.3-0.2,0.6-0.6,0.8-1C-1520.5,1163.9-1520.2,1163.4-1520,1162.8z"/>
	</g>
	<g>
		
			<rect x="-1649.4" y="1149.8" transform="matrix(-0.9785 0.2061 -0.2061 -0.9785 -3010.2659 2627.9854)" class="st1" width="14.8" height="14.8"/>
		
			<rect x="-1643.9" y="1141.4" transform="matrix(-0.9785 0.2061 -0.2061 -0.9785 -3001.1851 2610.2832)" class="st1" width="14.8" height="14.8"/>
		<line class="st1" x1="-1645.5" y1="1143" x2="-1651" y2="1151.4"/>
		<line class="st1" x1="-1627.6" y1="1154.7" x2="-1633" y2="1163.1"/>
	</g>
</g>
</svg>
