<?xml version="1.0" encoding="utf-8"?>
<!-- Generator: Adobe Illustrator 19.1.0, SVG Export Plug-In . SVG Version: 6.00 Build 0)  -->
<!DOCTYPE svg PUBLIC "-//W3C//DTD SVG 1.1//EN" "http://www.w3.org/Graphics/SVG/1.1/DTD/svg11.dtd">
<svg version="1.1" id="Layer_1" xmlns="http://www.w3.org/2000/svg" xmlns:xlink="http://www.w3.org/1999/xlink" x="0px" y="0px"
	 viewBox="-164 301 150 40" style="enable-background:new -164 301 150 40;" xml:space="preserve">
<style type="text/css">
	.st0{fill:#52657C;}
	.st1{fill:none;stroke:#83C0FF;stroke-width:1.4361;stroke-miterlimit:10;}
</style>
<g>
	<g>
		<path class="st0" d="M-112.2,327.3c-0.3-0.5-0.6-1.1-1-1.7c-0.4-0.7-0.9-1.4-1.4-2.1c-0.5-0.8-1-1.5-1.6-2.3s-1.1-1.6-1.6-2.3
			c-0.5-0.8-1.1-1.5-1.6-2.1c-0.5-0.7-1-1.2-1.4-1.7v12.4h-1.4v-14.8h1.2c0.7,0.8,1.5,1.7,2.3,2.8c0.8,1.1,1.6,2.1,2.4,3.3
			c0.8,1.1,1.5,2.2,2.2,3.2c0.7,1.1,1.3,2,1.7,2.7v-12h1.4v14.8h-1.2V327.3z"/>
		<path class="st0" d="M-105.8,321.8c0-1,0.2-1.8,0.4-2.5c0.3-0.7,0.7-1.3,1.1-1.8c0.5-0.5,1-0.9,1.5-1.1c0.6-0.3,1.2-0.4,1.8-0.4
			c1.3,0,2.4,0.5,3.2,1.3c0.8,0.9,1.2,2.2,1.2,4.1c0,0.1,0,0.2,0,0.4c0,0.1,0,0.2-0.1,0.3h-7.7c0.1,1.4,0.4,2.4,1,3.1s1.6,1.1,3,1.1
			c0.8,0,1.3-0.1,1.8-0.2c0.5-0.2,0.8-0.3,1-0.4l0.3,1.2c-0.2,0.1-0.6,0.3-1.1,0.4c-0.6,0.2-1.2,0.3-1.9,0.3c-1,0-1.8-0.2-2.5-0.4
			c-0.7-0.3-1.2-0.7-1.7-1.2s-0.8-1.1-1-1.8C-105.8,323.4-105.8,322.6-105.8,321.8z M-98.1,320.9c-0.1-1.2-0.3-2-0.8-2.7
			s-1.2-1-2.2-1c-0.5,0-0.9,0.1-1.3,0.3c-0.4,0.2-0.7,0.5-1,0.8c-0.3,0.4-0.5,0.7-0.7,1.2c-0.2,0.5-0.3,0.9-0.3,1.4
			C-104.3,320.9-98.1,320.9-98.1,320.9z"/>
		<path class="st0" d="M-84.5,316.3c0.1,0.7,0.3,1.5,0.5,2.3s0.4,1.6,0.7,2.4c0.3,0.8,0.5,1.6,0.8,2.4s0.6,1.6,0.9,2.3
			c0.3-0.6,0.5-1.2,0.8-2s0.6-1.6,0.8-2.4c0.3-0.9,0.5-1.7,0.8-2.6s0.4-1.7,0.6-2.4h1.4c-0.5,2.1-1.1,4.1-1.7,5.9s-1.3,3.5-2,5.1
			h-1.3c-0.2-0.5-0.5-1.1-0.7-1.7c-0.3-0.6-0.5-1.3-0.7-2c-0.3-0.7-0.5-1.4-0.7-2.2c-0.3-0.8-0.5-1.6-0.7-2.4
			c-0.2,0.8-0.5,1.6-0.7,2.4c-0.3,0.8-0.5,1.5-0.7,2.2c-0.3,0.7-0.5,1.4-0.7,2c-0.2,0.6-0.5,1.2-0.7,1.7h-1.3
			c-0.7-1.6-1.4-3.3-2-5.1s-1.2-3.8-1.7-5.9h1.5c0.2,0.8,0.4,1.6,0.6,2.4c0.3,0.9,0.5,1.7,0.8,2.6c0.3,0.9,0.6,1.7,0.8,2.4
			c0.3,0.8,0.6,1.4,0.8,2c0.3-0.7,0.6-1.5,0.8-2.3c0.3-0.8,0.5-1.6,0.8-2.4c0.3-0.8,0.5-1.6,0.7-2.4c0.2-0.8,0.4-1.6,0.6-2.3H-84.5
			L-84.5,316.3z"/>
		<path class="st0" d="M-69.2,312.4c2.1,0,3.8,0.4,4.9,1.2c1.1,0.8,1.7,2,1.7,3.6c0,2-1,3.4-3,4.1c0.3,0.3,0.6,0.7,0.9,1.2
			c0.4,0.5,0.7,1,1,1.5c0.4,0.6,0.7,1.1,1,1.7s0.6,1.1,0.9,1.7h-3c-0.3-0.5-0.6-1-0.9-1.5s-0.6-1-1-1.5c-0.3-0.5-0.6-1-1-1.4
			s-0.6-0.8-0.9-1.2c-0.2,0-0.4,0-0.5,0s-0.3,0-0.4,0h-1.3v5.6h-2.7v-14.5c0.7-0.2,1.3-0.3,2.1-0.3
			C-70.4,312.5-69.8,312.4-69.2,312.4z M-69,314.8c-0.6,0-1.1,0-1.6,0.1v4.8h1.2c0.7,0,1.2-0.1,1.7-0.1s0.9-0.2,1.2-0.4
			c0.4-0.2,0.6-0.5,0.8-0.8s0.3-0.7,0.3-1.2s-0.1-0.8-0.3-1.2c-0.2-0.3-0.4-0.6-0.7-0.8c-0.3-0.2-0.7-0.3-1.1-0.4
			C-68,314.8-68.4,314.8-69,314.8z"/>
		<path class="st0" d="M-54.2,315.9c0.9,0,1.6,0.1,2.1,0.3c0.6,0.2,1.1,0.5,1.4,0.9s0.6,0.9,0.8,1.4c0.2,0.6,0.2,1.2,0.2,1.8v6.8
			c-0.4,0.1-1,0.2-1.8,0.3c-0.8,0.1-1.7,0.2-2.7,0.2c-0.7,0-1.3-0.1-1.8-0.2c-0.6-0.2-1-0.4-1.4-0.6c-0.4-0.3-0.7-0.7-0.9-1.1
			c-0.2-0.5-0.3-1-0.3-1.7s0.1-1.2,0.4-1.6c0.3-0.5,0.6-0.8,1-1.1s0.9-0.5,1.5-0.6s1.2-0.2,1.8-0.2c0.3,0,0.6,0,0.9,0.1
			s0.7,0.1,1,0.2v-0.4c0-0.3-0.1-0.6-0.1-0.9c-0.1-0.3-0.2-0.5-0.4-0.7c-0.2-0.2-0.4-0.4-0.7-0.5c-0.3-0.1-0.7-0.2-1.1-0.2
			c-0.6,0-1.1,0.1-1.6,0.2s-0.9,0.2-1.2,0.3l-0.3-2.1c0.3-0.1,0.8-0.2,1.4-0.4C-55.5,316-54.9,315.9-54.2,315.9z M-54,325.5
			c0.8,0,1.4-0.1,1.8-0.2v-2.8c-0.2-0.1-0.4-0.1-0.6-0.2c-0.3-0.1-0.6-0.1-0.9-0.1s-0.6,0-0.9,0.1s-0.6,0.1-0.8,0.3
			c-0.3,0.1-0.4,0.3-0.6,0.5s-0.2,0.5-0.2,0.8c0,0.6,0.2,1,0.6,1.3C-55,325.4-54.5,325.5-54,325.5z"/>
		<path class="st0" d="M-35.5,327c-0.5,0.2-1.1,0.3-1.9,0.4c-0.8,0.2-1.7,0.2-2.6,0.2s-1.6-0.2-2.2-0.4s-1.1-0.6-1.4-1.1
			s-0.6-1-0.8-1.6c-0.2-0.6-0.3-1.3-0.3-2.1v-6.2h2.6v5.9c0,1.2,0.2,2,0.5,2.5c0.4,0.5,1,0.8,1.8,0.8c0.3,0,0.7,0,1-0.1
			s0.6-0.1,0.8-0.1v-9h2.6L-35.5,327L-35.5,327z"/>
		<path class="st0" d="M-23.9,321.5c0-1.2-0.2-2-0.5-2.5s-0.8-0.8-1.6-0.8c-0.3,0-0.6,0-0.9,0.1c-0.4,0.1-0.6,0.1-0.8,0.1v9h-2.6
			v-10.8c0.5-0.2,1.2-0.3,1.9-0.4c0.8-0.2,1.6-0.2,2.5-0.2c0.8,0,1.4,0.1,1.9,0.3c0.5,0.2,0.9,0.5,1.2,0.8c0.2-0.1,0.4-0.3,0.6-0.4
			c0.3-0.1,0.5-0.3,0.8-0.4s0.6-0.2,1-0.3c0.4-0.1,0.7-0.1,1-0.1c0.9,0,1.6,0.1,2.1,0.4s1,0.6,1.3,1c0.3,0.4,0.6,1,0.7,1.6
			c0.1,0.6,0.2,1.3,0.2,2.1v6.3h-2.6v-5.8c0-1.2-0.2-2-0.4-2.5c-0.3-0.5-0.8-0.8-1.6-0.8c-0.4,0-0.8,0.1-1.2,0.2
			c-0.4,0.2-0.7,0.3-0.8,0.4c0.1,0.4,0.2,0.7,0.3,1.1s0.1,0.8,0.1,1.3v6.2h-2.6V321.5L-23.9,321.5z"/>
	</g>
	<g>
		
			<rect x="-161.4" y="317.8" transform="matrix(-0.9785 0.2061 -0.2061 -0.9785 -237.8907 674.9713)" class="st1" width="14.5" height="14.5"/>
		
			<rect x="-156" y="309.7" transform="matrix(-0.9785 0.2061 -0.2061 -0.9785 -229.0875 657.6745)" class="st1" width="14.5" height="14.5"/>
		<line class="st1" x1="-157.6" y1="311.2" x2="-162.9" y2="319.4"/>
		<line class="st1" x1="-140.1" y1="322.6" x2="-145.4" y2="330.8"/>
	</g>
</g>
</svg>
