<?xml version="1.0" encoding="utf-8"?>
<!-- Generator: Adobe Illustrator 19.1.0, SVG Export Plug-In . SVG Version: 6.00 Build 0)  -->
<!DOCTYPE svg PUBLIC "-//W3C//DTD SVG 1.1//EN" "http://www.w3.org/Graphics/SVG/1.1/DTD/svg11.dtd">
<svg version="1.1" id="Layer_1" xmlns="http://www.w3.org/2000/svg" xmlns:xlink="http://www.w3.org/1999/xlink" x="0px" y="0px"
	 viewBox="0 0 1500 929" style="enable-background:new 0 0 1500 929;" xml:space="preserve">
<style type="text/css">
	.st0{fill:#FFFFFF;}
	.st1{fill:#EEEEEE;}
	.st2{fill:#FF6464;}
	.st3{fill:#F9D43A;}
	.st4{fill:#56E271;}
	.st5{fill:#CCCCCC;}
	.st6{font-family:'MyriadPro-Regular';}
	.st7{font-size:11.3076px;}
	.st8{fill:#334867;}
	.st9{fill:none;stroke:#83C0FF;stroke-width:1.467;stroke-miterlimit:10;}
	.st10{fill:#263F5E;}
	.st11{fill:#83C0FF;}
	.st12{fill:none;stroke:#83C0FF;stroke-miterlimit:10;}
	.st13{fill:#A1B7CE;}
	.st14{fill:#83C0FF;stroke:#324559;stroke-width:1.0833;stroke-miterlimit:10;}
	.st15{font-family:'OpenSans';}
	.st16{font-size:13px;}
	.st17{fill:#334766;stroke:#FFFFFF;stroke-width:2.1817;stroke-miterlimit:10;}
</style>
<g>
	<g>
		<path class="st0" d="M1499,39.5H1.1V811c0,2.3,1.9,4.2,4.2,4.2h1489.5c2.3,0,4.2-1.9,4.2-4.2V39.5L1499,39.5z"/>
	</g>
	<path class="st1" d="M1498.9,4.2c0-2.3-1.9-4.2-4.2-4.2H5.2C2.9,0,1,1.9,1,4.2v42.3L1.1,811c0,2.3,1.9,4.2,4.2,4.2h1489.5
		c2.3,0,4.2-1.9,4.2-4.2L1498.9,4.2z M5.3,811V46.5h1489.5V811H5.3z"/>
	<circle class="st2" cx="25.5" cy="23.3" r="7.8"/>
	<circle class="st3" cx="53.8" cy="23.3" r="7.8"/>
	<circle class="st4" cx="82.1" cy="23.3" r="7.8"/>
	<path class="st0" d="M1451.7,31.7c0,2.3-1.9,4.2-4.2,4.2h-1277c-2.3,0-4.2-1.9-4.2-4.2V14.8c0-2.3,1.9-4.2,4.2-4.2h1276.9
		c2.3,0,4.2,1.9,4.2,4.2L1451.7,31.7L1451.7,31.7z"/>
	<text transform="matrix(1 0 0 1 182.3574 26.8398)" class="st5 st6 st7">http://www.roomify.me/</text>
	<path class="st5" d="M1478.9,18.7h-2.7c-0.5,0-0.9-0.4-0.9-0.9s0.4-0.9,0.9-0.9h5c0.5,0,0.9,0.4,0.9,0.9l0,0v5
		c0,0.5-0.4,0.9-0.9,0.9s-0.9-0.4-0.9-0.9v-2.7l-7.8,7.8h2.8c0.5,0,0.9,0.4,0.9,0.9s-0.4,0.9-0.9,0.9h-5l0,0l0,0l0,0l0,0
		c-0.5,0-0.8-0.4-0.9-0.9l0,0l0,0l0,0l0,0v-5c0-0.5,0.4-0.9,0.9-0.9s0.9,0.4,0.9,0.9v2.8L1478.9,18.7z"/>
	<path class="st5" d="M119.9,21.7L119.9,21.7L119.9,21.7h-8.2l3.2-3.2c0.6-0.6,0.6-1.6,0-2.1c-0.6-0.6-1.6-0.6-2.2,0l-5.8,5.8l0,0
		l0,0l0,0l0,0c-0.5,0.6-0.5,1.4,0,2l0,0l0,0l0,0l0,0l5.8,5.8c0.6,0.6,1.6,0.6,2.2,0s0.6-1.6,0-2.2l-3.2-3.2h8.1l0,0l0,0
		c0.5,0,0.9-0.4,0.9-0.9v-1.2C120.8,22.1,120.4,21.7,119.9,21.7z"/>
	<path class="st5" d="M136,24.8L136,24.8C136,24.8,136.1,24.8,136,24.8h8.2L141,28c-0.6,0.6-0.6,1.6,0,2.1c0.6,0.6,1.6,0.6,2.2,0
		l5.8-5.8l0,0l0,0l0,0l0,0c0.5-0.6,0.5-1.4,0-2l0,0l0,0l0,0l0,0l-5.8-5.8c-0.6-0.6-1.6-0.6-2.2,0c-0.6,0.6-0.6,1.6,0,2.2l3.2,3.2
		h-8.1l0,0l0,0c-0.5,0-0.9,0.4-0.9,0.9V24C135.1,24.4,135.5,24.8,136,24.8z"/>
</g>
<rect x="6" y="46" class="st8" width="1488.8" height="64"/>
<g>
	<g>
		
			<rect x="90.5" y="74.8" transform="matrix(-0.9785 0.2061 -0.2061 -0.9785 210.6592 142.3705)" class="st9" width="14.8" height="14.8"/>
		
			<rect x="96" y="66.4" transform="matrix(-0.9785 0.2061 -0.2061 -0.9785 219.8442 124.7833)" class="st9" width="14.8" height="14.8"/>
		<line class="st9" x1="94.5" y1="68" x2="89" y2="76.4"/>
		<line class="st9" x1="112.4" y1="79.7" x2="107" y2="88.1"/>
	</g>
</g>
<rect x="1379.5" y="46" class="st10" width="115.3" height="64"/>
<g>
	<circle class="st9" cx="1424.1" cy="78" r="20.2"/>
	<g id="_x31_0_27_">
		<g>
			<path class="st11" d="M1470.3,78c-0.2-0.2-0.5-0.2-0.6,0l-4.6,5.1l-4.6-5.1c-0.2-0.2-0.5-0.2-0.6,0c-0.2,0.2-0.2,0.5,0,0.6
				l4.9,5.4c0.1,0.1,0.2,0.1,0.3,0.1c0.1,0,0.2,0,0.3-0.1l4.9-5.4C1470.5,78.5,1470.5,78.2,1470.3,78z"/>
		</g>
		<g>
			<path class="st12" d="M1470.3,78c-0.2-0.2-0.5-0.2-0.6,0l-4.6,5.1l-4.6-5.1c-0.2-0.2-0.5-0.2-0.6,0c-0.2,0.2-0.2,0.5,0,0.6
				l4.9,5.4c0.1,0.1,0.2,0.1,0.3,0.1c0.1,0,0.2,0,0.3-0.1l4.9-5.4C1470.5,78.5,1470.5,78.2,1470.3,78z"/>
		</g>
	</g>
</g>
<g>
	<g id="_x37__3_">
		<g>
			<path class="st13" d="M1328.5,71.4c-2.9-1.6-6.6-0.7-8.2,2.2l-2.4,4.1l-4.5,2.9l4.7,2.6c-0.8,1.4-0.3,3.2,1.1,4
				c1.4,0.8,3.3,0.3,4.1-1.1l4.7,2.6l0.3-5.2l2.4-4.1C1332.4,76.7,1331.4,73.1,1328.5,71.4z M1319.8,86.2c-0.9-0.5-1.2-1.6-0.7-2.4
				l3.1,1.8C1321.8,86.4,1320.7,86.7,1319.8,86.2z M1329.7,78.9l-2.4,4.1l-0.2,3.9l-11.5-6.5l3.4-2.2l2.4-4.1c1.3-2.2,4.3-3,6.6-1.7
				C1330.2,73.8,1331,76.6,1329.7,78.9z"/>
		</g>
	</g>
	<g id="_x34__6_">
		<g>
			<path class="st13" d="M1253.3,75.6c0,0.2,0,0.3,0,0.5c0,0.4,0,0.8-0.1,1.1c0.8,1,1.3,2.1,1.3,3.4c0,2-1.2,3.8-3,4.8v2.1l-2.1-1.4
				c-0.5,0.1-1,0.2-1.6,0.2c-1.6,0-2.4-0.5-3.5-1.3c-0.3,0-0.7,0-1,0c-0.2,0-0.5,0-0.7,0c1.4,1.4,2.9,2.3,5.2,2.3c0.5,0,1,0,1.4-0.1
				l3.4,2.1V86c1.8-1.3,3-3.2,3-5.4C1255.8,78.6,1254.8,76.8,1253.3,75.6z M1244.6,77.9c0.5,0,0.9-0.4,0.9-0.9
				c0-0.5-0.4-0.9-0.9-0.9s-0.9,0.4-0.9,0.9C1243.7,77.5,1244.1,77.9,1244.6,77.9z M1248.2,77.9c0.5,0,0.9-0.4,0.9-0.9
				c0-0.5-0.4-0.9-0.9-0.9s-0.9,0.4-0.9,0.9C1247.3,77.5,1247.7,77.9,1248.2,77.9z M1242.9,83.8c0.5,0.1,1.5,0.2,2,0.2
				c4.3,0,7.2-3.2,7.2-7s-3.6-6.9-7.2-6.9c-4.3,0-7.9,3.1-7.9,6.9c0,2.2,0.8,4.1,2.4,5.4v3.4L1242.9,83.8z M1238.3,77
				c0-3.2,2.9-5.7,6.6-5.7c3,0,6,2.6,6,5.7c0,3.2-2.4,5.7-6,5.7c-0.5,0-1.7-0.1-2.2-0.2l-2.1,1.4v-2.1
				C1239.2,80.6,1238.3,79,1238.3,77z M1241,77.9c0.5,0,0.9-0.4,0.9-0.9c0-0.5-0.4-0.9-0.9-0.9s-0.9,0.4-0.9,0.9
				C1240.1,77.5,1240.5,77.9,1241,77.9z"/>
		</g>
	</g>
	<circle class="st14" cx="1330.9" cy="72.4" r="3.2"/>
</g>
<g>
	<text transform="matrix(1 0 0 1 195.4894 82.9556)" class="st0 st15 st16">Dashboard</text>
</g>
<g>
	<text transform="matrix(1 0 0 1 316.4873 82.9551)" class="st13 st15 st16">Browse</text>
</g>
<g>
	<g id="_x33__19_">
		<path class="st17" d="M757.9,376.3h-22.4v-7.5c0-4.1-3.3-7.5-7.5-7.5h-29.9c-4.1,0-7.5,3.3-7.5,7.5v7.5h-22.4
			c-8.3,0-14.9,6.7-14.9,14.9v67.2c0,8.3,6.7,14.9,14.9,14.9h89.7c8.3,0,14.9-6.7,14.9-14.9v-67.2
			C772.8,383,766.1,376.3,757.9,376.3z M698.1,372.6c0-2.1,1.7-3.7,3.7-3.7h22.4c2.1,0,3.7,1.7,3.7,3.7v3.7H698L698.1,372.6
			L698.1,372.6z M765.4,458.5c0,4.1-3.3,7.5-7.5,7.5h-89.7c-4.1,0-7.5-3.3-7.5-7.5v-41.1h37.9c-0.3,1.2-0.5,2.4-0.5,3.7
			c0,8.3,6.7,14.9,14.9,14.9s14.9-6.7,14.9-14.9c0-1.3-0.2-2.5-0.5-3.7h37.9L765.4,458.5L765.4,458.5z M705.6,421.1
			c0-1.4,0.4-2.6,1-3.7h12.9c0.6,1.1,1,2.4,1,3.7c0,4.1-3.3,7.5-7.5,7.5S705.6,425.3,705.6,421.1z M765.4,409.9H660.7v-18.7
			c0-4.1,3.3-7.5,7.5-7.5h89.7c4.1,0,7.5,3.3,7.5,7.5V409.9z"/>
	</g>
	<g>
		<g>
			<g>
				<g>
					<path class="st0" d="M719.3,507.9c-2.3,0-4.3-2-4.3-4.3v-13.1c0-16.8,13.7-30.5,30.5-30.5h64.8c16.8,0,30.5,13.7,30.5,30.5
						v13.1c0,2.3-2,4.3-4.3,4.3H719.3z"/>
					<path class="st0" d="M810.3,463.1c15,0,27.5,12.4,27.5,27.5v13.1c0,0.6-0.6,1.3-1.3,1.3H719.3c-0.6,0-1.3-0.6-1.3-1.3v-13.1
						c0-15,12.2-27.5,27.5-27.5H810.3 M810.3,457.1h-64.8c-18.4,0-33.5,15-33.5,33.5v13.1c0,3.9,3.3,7.3,7.3,7.3h117.1
						c3.9,0,7.3-3.3,7.3-7.3v-13.1c0-8.9-3.5-17.2-9.9-23.6C827.5,460.6,819.1,457.1,810.3,457.1L810.3,457.1z"/>
				</g>
				<g>
					<path class="st11" d="M719.3,510.9c-3.9,0-7.3-3.3-7.3-7.3v-13.1c0-18.4,15-33.5,33.5-33.5h64.8c18.4,0,33.5,15,33.5,33.5v13.1
						c0,3.9-3.3,7.3-7.3,7.3H719.3z M831.7,498.9v-8.4c0-11.6-9.8-21.5-21.5-21.5h-64.7c-11.8,0-21.5,9.6-21.5,21.5v8.4H831.7z"/>
					<path class="st0" d="M810.3,460.1c16.8,0,30.5,13.7,30.5,30.5v13.1c0,2.3-2,4.3-4.3,4.3H719.3c-2.3,0-4.3-2-4.3-4.3v-13.1
						c0-16.8,13.7-30.5,30.5-30.5H810.3 M721.1,501.9h113.7v-11.4c0-13.3-11.2-24.5-24.5-24.5h-64.8c-13.5,0-24.5,11-24.5,24.5
						L721.1,501.9 M810.3,454.1h-64.8c-20.1,0-36.5,16.4-36.5,36.5v13.1c0,5.6,4.7,10.3,10.3,10.3h117.1c5.6,0,10.3-4.7,10.3-10.3
						v-13.1C846.7,470.4,830.4,454.1,810.3,454.1L810.3,454.1z M727.1,495.9v-5.4c0-10.2,8.3-18.5,18.5-18.5h64.8
						c10,0,18.5,8.4,18.5,18.5v5.4H727.1L727.1,495.9z"/>
				</g>
			</g>
		</g>
		<g>
			<g>
				<path class="st0" d="M777.9,467.2c-18.8,0-34.1-17.8-34.1-39.7s15.3-39.7,34.1-39.7s34.1,17.8,34.1,39.7
					S796.7,467.2,777.9,467.2z"/>
				<path class="st0" d="M777.9,390.9c17.2,0,31.1,16.4,31.1,36.7s-13.9,36.7-31.1,36.7s-31.1-16.4-31.1-36.7
					S760.7,390.9,777.9,390.9 M777.9,384.9c-20.5,0-37.1,19.1-37.1,42.7c0,23.5,16.6,42.7,37.1,42.7s37.1-19.1,37.1-42.7
					S798.3,384.9,777.9,384.9L777.9,384.9z"/>
			</g>
			<g>
				<path class="st11" d="M777.9,470.2c-20.5,0-37.1-19.1-37.1-42.7s16.6-42.7,37.1-42.7s37.1,19.1,37.1,42.7
					S798.3,470.2,777.9,470.2z M777.9,396.9c-13.8,0-25.1,13.8-25.1,30.7s11.3,30.7,25.1,30.7s25.1-13.8,25.1-30.7
					S791.7,396.9,777.9,396.9z"/>
				<path class="st0" d="M777.9,387.9c18.8,0,34.1,17.8,34.1,39.7s-15.3,39.7-34.1,39.7s-34.1-17.8-34.1-39.7
					S759.1,387.9,777.9,387.9 M777.9,461.2c15.5,0,28.1-15.1,28.1-33.7s-12.6-33.7-28.1-33.7s-28.1,15.1-28.1,33.7
					S762.4,461.2,777.9,461.2 M777.9,381.9c-22.1,0-40.1,20.5-40.1,45.7s18,45.7,40.1,45.7s40.1-20.5,40.1-45.7
					S800,381.9,777.9,381.9L777.9,381.9z M777.9,455.2c-12.2,0-22.1-12.4-22.1-27.7s9.9-27.7,22.1-27.7c12.2,0,22.1,12.4,22.1,27.7
					S790.1,455.2,777.9,455.2L777.9,455.2z"/>
			</g>
		</g>
	</g>
</g>
</svg>
