<?xml version="1.0" encoding="utf-8"?>
<!-- Generator: Adobe Illustrator 19.1.0, SVG Export Plug-In . SVG Version: 6.00 Build 0)  -->
<!DOCTYPE svg PUBLIC "-//W3C//DTD SVG 1.1//EN" "http://www.w3.org/Graphics/SVG/1.1/DTD/svg11.dtd">
<svg version="1.1" id="Layer_1" xmlns="http://www.w3.org/2000/svg" xmlns:xlink="http://www.w3.org/1999/xlink" x="0px" y="0px"
	 viewBox="0 0 1500 929" style="enable-background:new 0 0 1500 929;" xml:space="preserve">
<style type="text/css">
	.st0{fill:#FFFFFF;}
	.st1{fill:#EEEEEE;}
	.st2{fill:#FF6464;}
	.st3{fill:#F9D43A;}
	.st4{fill:#56E271;}
	.st5{fill:#CCCCCC;}
	.st6{font-family:'MyriadPro-Regular';}
	.st7{font-size:11.3076px;}
	.st8{fill:#334766;stroke:#FFFFFF;stroke-width:2.2567;stroke-miterlimit:10;}
	.st9{fill:#83C0FF;stroke:#FFFFFF;stroke-width:2.059;stroke-miterlimit:10;}
	.st10{fill:#334867;}
	.st11{fill:none;stroke:#83C0FF;stroke-width:1.467;stroke-miterlimit:10;}
	.st12{fill:#263F5E;}
	.st13{fill:#83C0FF;}
	.st14{fill:none;stroke:#83C0FF;stroke-miterlimit:10;}
	.st15{fill:#A1B7CE;}
	.st16{fill:#83C0FF;stroke:#324559;stroke-width:1.0833;stroke-miterlimit:10;}
	.st17{font-family:'OpenSans';}
	.st18{font-size:13px;}
</style>
<g>
	<g>
		<path class="st0" d="M1499,39.5H1.1V811c0,2.3,1.9,4.2,4.2,4.2h1489.5c2.3,0,4.2-1.9,4.2-4.2V39.5L1499,39.5z"/>
	</g>
	<path class="st1" d="M1498.9,4.2c0-2.3-1.9-4.2-4.2-4.2H5.2C2.9,0,1,1.9,1,4.2v42.3L1.1,811c0,2.3,1.9,4.2,4.2,4.2h1489.5
		c2.3,0,4.2-1.9,4.2-4.2L1498.9,4.2z M5.3,811V46.5h1489.5V811H5.3z"/>
	<circle class="st2" cx="25.5" cy="23.3" r="7.8"/>
	<circle class="st3" cx="53.8" cy="23.3" r="7.8"/>
	<circle class="st4" cx="82.1" cy="23.3" r="7.8"/>
	<path class="st0" d="M1451.7,31.7c0,2.3-1.9,4.2-4.2,4.2h-1277c-2.3,0-4.2-1.9-4.2-4.2V14.8c0-2.3,1.9-4.2,4.2-4.2h1276.9
		c2.3,0,4.2,1.9,4.2,4.2L1451.7,31.7L1451.7,31.7z"/>
	<text transform="matrix(1 0 0 1 182.3574 26.8398)" class="st5 st6 st7">http://www.roomify.me/</text>
	<path class="st5" d="M1478.9,18.7h-2.7c-0.5,0-0.9-0.4-0.9-0.9s0.4-0.9,0.9-0.9h5c0.5,0,0.9,0.4,0.9,0.9l0,0v5
		c0,0.5-0.4,0.9-0.9,0.9s-0.9-0.4-0.9-0.9v-2.7l-7.8,7.8h2.8c0.5,0,0.9,0.4,0.9,0.9s-0.4,0.9-0.9,0.9h-5l0,0l0,0l0,0l0,0
		c-0.5,0-0.8-0.4-0.9-0.9l0,0l0,0l0,0l0,0v-5c0-0.5,0.4-0.9,0.9-0.9s0.9,0.4,0.9,0.9v2.8L1478.9,18.7z"/>
	<path class="st5" d="M119.9,21.7L119.9,21.7L119.9,21.7h-8.2l3.2-3.2c0.6-0.6,0.6-1.6,0-2.1c-0.6-0.6-1.6-0.6-2.2,0l-5.8,5.8l0,0
		l0,0l0,0l0,0c-0.5,0.6-0.5,1.4,0,2l0,0l0,0l0,0l0,0l5.8,5.8c0.6,0.6,1.6,0.6,2.2,0s0.6-1.6,0-2.2l-3.2-3.2h8.1l0,0l0,0
		c0.5,0,0.9-0.4,0.9-0.9v-1.2C120.8,22.1,120.4,21.7,119.9,21.7z"/>
	<path class="st5" d="M136,24.8L136,24.8C136,24.8,136.1,24.8,136,24.8h8.2L141,28c-0.6,0.6-0.6,1.6,0,2.1c0.6,0.6,1.6,0.6,2.2,0
		l5.8-5.8l0,0l0,0l0,0l0,0c0.5-0.6,0.5-1.4,0-2l0,0l0,0l0,0l0,0l-5.8-5.8c-0.6-0.6-1.6-0.6-2.2,0c-0.6,0.6-0.6,1.6,0,2.2l3.2,3.2
		h-8.1l0,0l0,0c-0.5,0-0.9,0.4-0.9,0.9V24C135.1,24.4,135.5,24.8,136,24.8z"/>
</g>
<g>
	<g id="_x34__18_">
		<path class="st8" d="M706.9,425.8c4.2,0,7.7-3.2,7.7-7.2s-3.4-7.2-7.7-7.2c-4.2,0-7.7,3.2-7.7,7.2S702.6,425.8,706.9,425.8z
			 M768.3,425.8c4.2,0,7.7-3.2,7.7-7.2s-3.4-7.2-7.7-7.2c-4.2,0-7.7,3.2-7.7,7.2S764.1,425.8,768.3,425.8z M737.6,425.8
			c4.2,0,7.7-3.2,7.7-7.2s-3.4-7.2-7.7-7.2c-4.2,0-7.7,3.2-7.7,7.2S733.3,425.8,737.6,425.8z M722.9,472.8c4,0.6,13,1.3,17.2,1.3
			c36.8,0,61.4-25.8,61.4-56.2c0-30.3-30.8-54.9-61.4-54.9c-36.8,0-66.6,24.6-66.6,54.9c0,17.6,7.1,32.5,20.5,43.3v27.4L722.9,472.8
			z M683.8,418.6c0-25.3,24.3-45.9,56.3-45.9c25.5,0,51.2,20.5,51.2,45.9c0,25.3-20.1,45.9-51.2,45.9c-4.6,0-14.1-0.5-18.4-1.3
			l-17.5,11v-17.1C691.8,447.4,683.8,434.7,683.8,418.6z"/>
	</g>
	<path class="st9" d="M807.5,411.3c0.1,1.3,0.2,2.5,0.2,3.8c0,2.8-0.3,5.5-0.7,8.3c6.3,6.9,10,15.5,10,24.8
		c0,14.7-9.3,27.6-23.4,35.1l1.4,15.1l-17.3-10.5c-3.9,0.8-9.3,1.8-13.5,1.8c-12.1,0-17.1-3-25.9-8.7c-2.5,0.2-5.1,0.3-7.7,0.3
		c-1.9,0-3.7-0.1-5.5-0.2c11.1,10.3,22.6,16.8,40.5,16.8c3.8,0,7.6-0.3,11.2-0.9l26.2,15.2v-25c14.2-9.2,23.4-23.4,23.4-39.5
		C826.4,433.3,819.1,420.4,807.5,411.3z"/>
</g>
<rect x="6" y="46" class="st10" width="1488.8" height="64"/>
<g>
	<g>
		
			<rect x="90.5" y="74.8" transform="matrix(-0.9785 0.2061 -0.2061 -0.9785 210.6592 142.3705)" class="st11" width="14.8" height="14.8"/>
		
			<rect x="96" y="66.4" transform="matrix(-0.9785 0.2061 -0.2061 -0.9785 219.8442 124.7833)" class="st11" width="14.8" height="14.8"/>
		<line class="st11" x1="94.5" y1="68" x2="89" y2="76.4"/>
		<line class="st11" x1="112.4" y1="79.7" x2="107" y2="88.1"/>
	</g>
</g>
<rect x="1379.5" y="46" class="st12" width="115.3" height="64"/>
<g>
	<circle class="st11" cx="1424.1" cy="78" r="20.2"/>
	<g id="_x31_0_27_">
		<g>
			<path class="st13" d="M1470.3,78c-0.2-0.2-0.5-0.2-0.6,0l-4.6,5.1l-4.6-5.1c-0.2-0.2-0.5-0.2-0.6,0c-0.2,0.2-0.2,0.5,0,0.6
				l4.9,5.4c0.1,0.1,0.2,0.1,0.3,0.1c0.1,0,0.2,0,0.3-0.1l4.9-5.4C1470.5,78.5,1470.5,78.2,1470.3,78z"/>
		</g>
		<g>
			<path class="st14" d="M1470.3,78c-0.2-0.2-0.5-0.2-0.6,0l-4.6,5.1l-4.6-5.1c-0.2-0.2-0.5-0.2-0.6,0c-0.2,0.2-0.2,0.5,0,0.6
				l4.9,5.4c0.1,0.1,0.2,0.1,0.3,0.1c0.1,0,0.2,0,0.3-0.1l4.9-5.4C1470.5,78.5,1470.5,78.2,1470.3,78z"/>
		</g>
	</g>
</g>
<g>
	<g id="_x37__3_">
		<g>
			<path class="st15" d="M1328.5,71.4c-2.9-1.6-6.6-0.7-8.2,2.2l-2.4,4.1l-4.5,2.9l4.7,2.6c-0.8,1.4-0.3,3.2,1.1,4
				c1.4,0.8,3.3,0.3,4.1-1.1l4.7,2.6l0.3-5.2l2.4-4.1C1332.4,76.7,1331.4,73.1,1328.5,71.4z M1319.8,86.2c-0.9-0.5-1.2-1.6-0.7-2.4
				l3.1,1.8C1321.8,86.4,1320.7,86.7,1319.8,86.2z M1329.7,78.9l-2.4,4.1l-0.2,3.9l-11.5-6.5l3.4-2.2l2.4-4.1c1.3-2.2,4.3-3,6.6-1.7
				C1330.2,73.8,1331,76.6,1329.7,78.9z"/>
		</g>
	</g>
	<g id="_x34__6_">
		<g>
			<path class="st15" d="M1253.3,75.6c0,0.2,0,0.3,0,0.5c0,0.4,0,0.8-0.1,1.1c0.8,1,1.3,2.1,1.3,3.4c0,2-1.2,3.8-3,4.8v2.1l-2.1-1.4
				c-0.5,0.1-1,0.2-1.6,0.2c-1.6,0-2.4-0.5-3.5-1.3c-0.3,0-0.7,0-1,0c-0.2,0-0.5,0-0.7,0c1.4,1.4,2.9,2.3,5.2,2.3c0.5,0,1,0,1.4-0.1
				l3.4,2.1V86c1.8-1.3,3-3.2,3-5.4C1255.8,78.6,1254.8,76.8,1253.3,75.6z M1244.6,77.9c0.5,0,0.9-0.4,0.9-0.9
				c0-0.5-0.4-0.9-0.9-0.9s-0.9,0.4-0.9,0.9C1243.7,77.5,1244.1,77.9,1244.6,77.9z M1248.2,77.9c0.5,0,0.9-0.4,0.9-0.9
				c0-0.5-0.4-0.9-0.9-0.9s-0.9,0.4-0.9,0.9C1247.3,77.5,1247.7,77.9,1248.2,77.9z M1242.9,83.8c0.5,0.1,1.5,0.2,2,0.2
				c4.3,0,7.2-3.2,7.2-7s-3.6-6.9-7.2-6.9c-4.3,0-7.9,3.1-7.9,6.9c0,2.2,0.8,4.1,2.4,5.4v3.4L1242.9,83.8z M1238.3,77
				c0-3.2,2.9-5.7,6.6-5.7c3,0,6,2.6,6,5.7c0,3.2-2.4,5.7-6,5.7c-0.5,0-1.7-0.1-2.2-0.2l-2.1,1.4v-2.1
				C1239.2,80.6,1238.3,79,1238.3,77z M1241,77.9c0.5,0,0.9-0.4,0.9-0.9c0-0.5-0.4-0.9-0.9-0.9s-0.9,0.4-0.9,0.9
				C1240.1,77.5,1240.5,77.9,1241,77.9z"/>
		</g>
	</g>
	<circle class="st16" cx="1330.9" cy="72.4" r="3.2"/>
</g>
<g>
	<text transform="matrix(1 0 0 1 195.4894 82.9556)" class="st0 st17 st18">Dashboard</text>
</g>
<g>
	<text transform="matrix(1 0 0 1 316.4873 82.9551)" class="st15 st17 st18">Browse</text>
</g>
</svg>
