<?xml version="1.0" encoding="utf-8"?>
<!-- Generator: Adobe Illustrator 19.1.0, SVG Export Plug-In . SVG Version: 6.00 Build 0)  -->
<!DOCTYPE svg PUBLIC "-//W3C//DTD SVG 1.1//EN" "http://www.w3.org/Graphics/SVG/1.1/DTD/svg11.dtd">
<svg version="1.1" id="Layer_1" xmlns="http://www.w3.org/2000/svg" xmlns:xlink="http://www.w3.org/1999/xlink" x="0px" y="0px"
	 viewBox="0 0 1500 929" style="enable-background:new 0 0 1500 929;" xml:space="preserve">
<style type="text/css">
	.st0{fill:#FFFFFF;}
	.st1{fill:#EEEEEE;}
	.st2{fill:#FF6464;}
	.st3{fill:#F9D43A;}
	.st4{fill:#56E271;}
	.st5{fill:#CCCCCC;}
	.st6{font-family:'MyriadPro-Regular';}
	.st7{font-size:11.3076px;}
</style>
<g>
	<g>
		<path class="st0" d="M1499,39.5H1.1V811c0,2.3,1.9,4.2,4.2,4.2h1489.5c2.3,0,4.2-1.9,4.2-4.2V39.5L1499,39.5z"/>
	</g>
	<path class="st1" d="M1498.9,4.2c0-2.3-1.9-4.2-4.2-4.2H5.2C2.9,0,1,1.9,1,4.2v42.3L1.1,811c0,2.3,1.9,4.2,4.2,4.2h1489.5
		c2.3,0,4.2-1.9,4.2-4.2L1498.9,4.2z M5.3,811V46.5h1489.5V811H5.3z"/>
	<circle class="st2" cx="25.5" cy="23.3" r="7.8"/>
	<circle class="st3" cx="53.8" cy="23.3" r="7.8"/>
	<circle class="st4" cx="82.1" cy="23.3" r="7.8"/>
	<path class="st0" d="M1451.7,31.7c0,2.3-1.9,4.2-4.2,4.2H170.5c-2.3,0-4.2-1.9-4.2-4.2V14.8c0-2.3,1.9-4.2,4.2-4.2h1276.9
		c2.3,0,4.2,1.9,4.2,4.2V31.7z"/>
	<text transform="matrix(1 0 0 1 182.3574 26.8398)" class="st5 st6 st7">http://www.roomify.me/</text>
	<path class="st5" d="M1478.9,18.7l-2.7,0c-0.5,0-0.9-0.4-0.9-0.9c0-0.5,0.4-0.9,0.9-0.9l5,0c0.5,0,0.9,0.4,0.9,0.9l0,0l0,5
		c0,0.5-0.4,0.9-0.9,0.9c-0.5,0-0.9-0.4-0.9-0.9l0-2.7l-7.8,7.8l2.8,0c0.5,0,0.9,0.4,0.9,0.9c0,0.5-0.4,0.9-0.9,0.9l-5,0l0,0l0,0h0
		h0c-0.5,0-0.8-0.4-0.9-0.9v0l0,0l0,0l0,0l0-5c0-0.5,0.4-0.9,0.9-0.9c0.5,0,0.9,0.4,0.9,0.9l0,2.8L1478.9,18.7z"/>
	<path class="st5" d="M119.9,21.7C119.9,21.7,119.9,21.7,119.9,21.7C119.9,21.7,119.9,21.7,119.9,21.7h-8.2l3.2-3.2
		c0.6-0.6,0.6-1.6,0-2.1c-0.6-0.6-1.6-0.6-2.2,0l-5.8,5.8l0,0l0,0v0l0,0c-0.5,0.6-0.5,1.4,0,2l0,0l0,0l0,0l0,0l5.8,5.8
		c0.6,0.6,1.6,0.6,2.2,0c0.6-0.6,0.6-1.6,0-2.2l-3.2-3.2h8.1c0,0,0,0,0,0s0,0,0,0c0.5,0,0.9-0.4,0.9-0.9v-1.2
		C120.8,22.1,120.4,21.7,119.9,21.7z"/>
	<path class="st5" d="M136,24.8C136,24.8,136,24.8,136,24.8C136,24.8,136.1,24.8,136,24.8h8.2l-3.2,3.2c-0.6,0.6-0.6,1.6,0,2.1
		c0.6,0.6,1.6,0.6,2.2,0l5.8-5.8l0,0l0,0v0l0,0c0.5-0.6,0.5-1.4,0-2l0,0l0,0l0,0l0,0l-5.8-5.8c-0.6-0.6-1.6-0.6-2.2,0
		c-0.6,0.6-0.6,1.6,0,2.2l3.2,3.2h-8.1c0,0,0,0,0,0c0,0,0,0,0,0c-0.5,0-0.9,0.4-0.9,0.9v1.2C135.1,24.4,135.5,24.8,136,24.8z"/>
</g>
</svg>
