<?xml version="1.0" encoding="utf-8"?>
<!-- Generator: Adobe Illustrator 19.1.0, SVG Export Plug-In . SVG Version: 6.00 Build 0)  -->
<!DOCTYPE svg PUBLIC "-//W3C//DTD SVG 1.1//EN" "http://www.w3.org/Graphics/SVG/1.1/DTD/svg11.dtd">
<svg version="1.1" id="Layer_1" xmlns="http://www.w3.org/2000/svg" xmlns:xlink="http://www.w3.org/1999/xlink" x="0px" y="0px"
	 viewBox="0 0 1500 929" style="enable-background:new 0 0 1500 929;" xml:space="preserve">
<style type="text/css">
	.st0{fill:#334766;stroke:#FFFFFF;stroke-width:2.1817;stroke-miterlimit:10;}
	.st1{fill:#FFFFFF;}
	.st2{fill:#83C0FF;}
</style>
<g>
	<g id="_x33__19_">
		<path class="st0" d="M762.4,245.9H740v-7.5c0-4.1-3.3-7.5-7.5-7.5h-29.9c-4.1,0-7.5,3.3-7.5,7.5v7.5h-22.4
			c-8.3,0-14.9,6.7-14.9,14.9V328c0,8.3,6.7,14.9,14.9,14.9h89.7c8.3,0,14.9-6.7,14.9-14.9v-67.2
			C777.3,252.6,770.6,245.9,762.4,245.9z M702.6,242.2c0-2.1,1.7-3.7,3.7-3.7h22.4c2.1,0,3.7,1.7,3.7,3.7v3.7h-29.9L702.6,242.2
			L702.6,242.2z M769.9,328.1c0,4.1-3.3,7.5-7.5,7.5h-89.7c-4.1,0-7.5-3.3-7.5-7.5V287h37.9c-0.3,1.2-0.5,2.4-0.5,3.7
			c0,8.3,6.7,14.9,14.9,14.9s14.9-6.7,14.9-14.9c0-1.3-0.2-2.5-0.5-3.7h37.9L769.9,328.1L769.9,328.1z M710.1,290.7
			c0-1.4,0.4-2.6,1-3.7H724c0.6,1.1,1,2.4,1,3.7c0,4.1-3.3,7.5-7.5,7.5S710.1,294.9,710.1,290.7z M769.9,279.5H665.2v-18.7
			c0-4.1,3.3-7.5,7.5-7.5h89.7c4.1,0,7.5,3.3,7.5,7.5V279.5z"/>
	</g>
	<g>
		<g>
			<g>
				<g>
					<path class="st1" d="M723.8,377.5c-2.3,0-4.3-2-4.3-4.3v-13.1c0-16.8,13.7-30.5,30.5-30.5h64.8c16.8,0,30.5,13.7,30.5,30.5
						v13.1c0,2.3-2,4.3-4.3,4.3H723.8z"/>
					<path class="st1" d="M814.8,332.7c15,0,27.5,12.4,27.5,27.5v13.1c0,0.6-0.6,1.3-1.3,1.3H723.8c-0.6,0-1.3-0.6-1.3-1.3v-13.1
						c0-15,12.2-27.5,27.5-27.5H814.8 M814.8,326.7H750c-18.4,0-33.5,15-33.5,33.5v13.1c0,3.9,3.3,7.3,7.3,7.3h117.1
						c3.9,0,7.3-3.3,7.3-7.3v-13.1c0-8.9-3.5-17.2-9.9-23.6C832,330.2,823.6,326.7,814.8,326.7L814.8,326.7z"/>
				</g>
				<g>
					<path class="st2" d="M723.8,380.5c-3.9,0-7.3-3.3-7.3-7.3v-13.1c0-18.4,15-33.5,33.5-33.5h64.8c18.4,0,33.5,15,33.5,33.5v13.1
						c0,3.9-3.3,7.3-7.3,7.3H723.8z M836.2,368.5v-8.4c0-11.6-9.8-21.5-21.5-21.5H750c-11.8,0-21.5,9.6-21.5,21.5v8.4H836.2z"/>
					<path class="st1" d="M814.8,329.7c16.8,0,30.5,13.7,30.5,30.5v13.1c0,2.3-2,4.3-4.3,4.3H723.8c-2.3,0-4.3-2-4.3-4.3v-13.1
						c0-16.8,13.7-30.5,30.5-30.5H814.8 M725.6,371.5h113.7v-11.4c0-13.3-11.2-24.5-24.5-24.5H750c-13.5,0-24.5,11-24.5,24.5
						L725.6,371.5 M814.8,323.7H750c-20.1,0-36.5,16.4-36.5,36.5v13.1c0,5.6,4.7,10.3,10.3,10.3h117.1c5.6,0,10.3-4.7,10.3-10.3
						v-13.1C851.2,340,834.9,323.7,814.8,323.7L814.8,323.7z M731.6,365.5v-5.4c0-10.2,8.3-18.5,18.5-18.5h64.8
						c10,0,18.5,8.4,18.5,18.5v5.4H731.6L731.6,365.5z"/>
				</g>
			</g>
		</g>
		<g>
			<g>
				<path class="st1" d="M782.4,336.8c-18.8,0-34.1-17.8-34.1-39.7s15.3-39.7,34.1-39.7s34.1,17.8,34.1,39.7
					S801.2,336.8,782.4,336.8z"/>
				<path class="st1" d="M782.4,260.5c17.2,0,31.1,16.4,31.1,36.7s-13.9,36.7-31.1,36.7s-31.1-16.4-31.1-36.7
					S765.2,260.5,782.4,260.5 M782.4,254.5c-20.5,0-37.1,19.1-37.1,42.7c0,23.5,16.6,42.7,37.1,42.7s37.1-19.1,37.1-42.7
					S802.8,254.5,782.4,254.5L782.4,254.5z"/>
			</g>
			<g>
				<path class="st2" d="M782.4,339.8c-20.5,0-37.1-19.1-37.1-42.7s16.6-42.7,37.1-42.7s37.1,19.1,37.1,42.7
					S802.8,339.8,782.4,339.8z M782.4,266.5c-13.8,0-25.1,13.8-25.1,30.7s11.3,30.7,25.1,30.7s25.1-13.8,25.1-30.7
					S796.2,266.5,782.4,266.5z"/>
				<path class="st1" d="M782.4,257.5c18.8,0,34.1,17.8,34.1,39.7s-15.3,39.7-34.1,39.7s-34.1-17.8-34.1-39.7
					S763.6,257.5,782.4,257.5 M782.4,330.8c15.5,0,28.1-15.1,28.1-33.7s-12.6-33.7-28.1-33.7s-28.1,15.1-28.1,33.7
					S766.9,330.8,782.4,330.8 M782.4,251.5c-22.1,0-40.1,20.5-40.1,45.7s18,45.7,40.1,45.7s40.1-20.5,40.1-45.7
					S804.5,251.5,782.4,251.5L782.4,251.5z M782.4,324.8c-12.2,0-22.1-12.4-22.1-27.7s9.9-27.7,22.1-27.7
					c12.2,0,22.1,12.4,22.1,27.7S794.6,324.8,782.4,324.8L782.4,324.8z"/>
			</g>
		</g>
	</g>
</g>
</svg>
