<?xml version="1.0" encoding="utf-8"?>
<!-- Generator: Adobe Illustrator 19.1.0, SVG Export Plug-In . SVG Version: 6.00 Build 0)  -->
<!DOCTYPE svg PUBLIC "-//W3C//DTD SVG 1.1//EN" "http://www.w3.org/Graphics/SVG/1.1/DTD/svg11.dtd">
<svg version="1.1" id="Layer_1" xmlns="http://www.w3.org/2000/svg" xmlns:xlink="http://www.w3.org/1999/xlink" x="0px" y="0px"
	 viewBox="0 0 1500 929" style="enable-background:new 0 0 1500 929;" xml:space="preserve">
<style type="text/css">
	.st0{fill:#334766;stroke:#FFFFFF;stroke-width:2.2567;stroke-miterlimit:10;}
	.st1{fill:#83C0FF;stroke:#FFFFFF;stroke-width:2.059;stroke-miterlimit:10;}
</style>
<g>
	<g id="_x34__18_">
		<path class="st0" d="M706.9,272.2c4.2,0,7.7-3.2,7.7-7.2c0-4-3.4-7.2-7.7-7.2c-4.2,0-7.7,3.2-7.7,7.2
			C699.2,269,702.6,272.2,706.9,272.2z M768.3,272.2c4.2,0,7.7-3.2,7.7-7.2c0-4-3.4-7.2-7.7-7.2c-4.2,0-7.7,3.2-7.7,7.2
			C760.6,269,764.1,272.2,768.3,272.2z M737.6,272.2c4.2,0,7.7-3.2,7.7-7.2c0-4-3.4-7.2-7.7-7.2c-4.2,0-7.7,3.2-7.7,7.2
			C729.9,269,733.3,272.2,737.6,272.2z M722.9,319.2c4,0.6,13,1.3,17.2,1.3c36.8,0,61.4-25.8,61.4-56.2c0-30.3-30.8-54.9-61.4-54.9
			c-36.8,0-66.6,24.6-66.6,54.9c0,17.6,7.1,32.5,20.5,43.3V335L722.9,319.2z M683.8,265c0-25.3,24.3-45.9,56.3-45.9
			c25.5,0,51.2,20.5,51.2,45.9c0,25.3-20.1,45.9-51.2,45.9c-4.6,0-14.1-0.5-18.4-1.3l-17.5,11v-17.1
			C691.8,293.8,683.8,281.1,683.8,265z"/>
	</g>
	<path class="st1" d="M807.5,257.7c0.1,1.3,0.2,2.5,0.2,3.8c0,2.8-0.3,5.5-0.7,8.3c6.3,6.9,10,15.5,10,24.8
		c0,14.7-9.3,27.6-23.4,35.1l1.4,15.1l-17.3-10.5c-3.9,0.8-9.3,1.8-13.5,1.8c-12.1,0-17.1-3-25.9-8.7c-2.5,0.2-5.1,0.3-7.7,0.3
		c-1.9,0-3.7-0.1-5.5-0.2c11.1,10.3,22.6,16.8,40.5,16.8c3.8,0,7.6-0.3,11.2-0.9l26.2,15.2v-25c14.2-9.2,23.4-23.4,23.4-39.5
		C826.4,279.7,819.1,266.8,807.5,257.7z"/>
</g>
</svg>
